<svg id="Layer_5" enable-background="new 0 0 64 64" height="512" viewBox="0 0 64 64" width="512" xmlns="http://www.w3.org/2000/svg">
    <style>
        path{fill: #ff8800;}
    </style>
    <path d="m59 49.685v-9.869c1.161-.414 2-1.514 2-2.816v-10c0-1.302-.839-2.402-2-2.816v-9.869c2.361-1.126 4-3.53 4-6.315 0-3.859-3.14-7-7-7s-7 3.141-7 7c0 2.785 1.639 5.188 4 6.315v9.869c-1.161.414-2 1.514-2 2.816v1h-4v-13c0-2.757-2.243-5-5-5h-.586l-2-2h-25.65l-6.764 3.382v4.618h27.586l2 2h2.414v28h-2.414l-2 2h-27.586v4.618l6.764 3.382h25.65l2-2h.586c2.757 0 5-2.243 5-5v-13h4v1c0 1.302.839 2.402 2 2.816v9.869c-2.361 1.126-4 3.53-4 6.315 0 3.859 3.14 7 7 7s7-3.141 7-7c0-2.785-1.639-5.188-4-6.315zm-14-.685c0 1.654-1.346 3-3 3h-1.414l-2 2h-24.35l-5.236-2.618v-1.382h2v2h2v-2h2v2h2v-2h2v2h2v-2h14.414l2-2h1.586c1.103 0 2-.897 2-2v-28c0-1.103-.897-2-2-2h-1.586l-2-2h-14.414v-2h-2v2h-2v-2h-2v2h-2v-2h-2v2h-2v-1.382l5.236-2.618h24.35l2 2h1.414c1.654 0 3 1.346 3 3zm6-41c0-2.757 2.243-5 5-5s5 2.243 5 5-2.243 5-5 5-5-2.243-5-5zm5 7c.34 0 .672-.033 1-.08v9.08h-2v-9.08c.328.047.66.08 1 .08zm-3 12c0-.552.449-1 1-1h4c.551 0 1 .448 1 1v10c0 .552-.449 1-1 1h-4c-.551 0-1-.448-1-1zm-6 7v-4h4v4zm8 6h2v9.08c-.328-.047-.66-.08-1-.08s-.672.033-1 .08zm1 21c-2.757 0-5-2.243-5-5s2.243-5 5-5 5 2.243 5 5-2.243 5-5 5z"/><path d="m56 5c-1.654 0-3 1.346-3 3h2c0-.552.449-1 1-1z"/><path d="m53 56h2c0-.552.449-1 1-1v-2c-1.654 0-3 1.346-3 3z"/><path d="m35 43v-2c0-1.302-.839-2.402-2-2.816v-2.369c1.161-.414 2-1.514 2-2.816v-2c0-1.302-.839-2.402-2-2.816v-2.369c1.161-.414 2-1.514 2-2.816v-2c0-1.654-1.346-3-3-3h-28c-1.654 0-3 1.346-3 3v2c0 1.302.839 2.402 2 2.816v2.369c-1.161.415-2 1.515-2 2.817v2c0 1.302.839 2.402 2 2.816v2.369c-1.161.413-2 1.513-2 2.815v2c0 1.654 1.346 3 3 3h28c1.654 0 3-1.346 3-3zm-4-7v2h-26v-2zm-15-4c0-1.103.897-2 2-2s2 .897 2 2-.897 2-2 2-2-.897-2-2zm15-6v2h-26v-2zm2 7c0 .552-.449 1-1 1h-10.556c.344-.591.556-1.268.556-2s-.212-1.409-.556-2h10.556c.551 0 1 .448 1 1zm-30-12c0-.552.449-1 1-1h28c.551 0 1 .448 1 1v2c0 .552-.449 1-1 1h-28c-.551 0-1-.448-1-1zm0 10c0-.552.449-1 1-1h10.556c-.344.591-.556 1.268-.556 2s.212 1.409.556 2h-10.556c-.551 0-1-.448-1-1zm0 12v-2c0-.552.449-1 1-1h28c.551 0 1 .448 1 1v2c0 .552-.449 1-1 1h-28c-.551 0-1-.448-1-1z"/><path d="m55 28h2v2h-2z"/><path d="m55 34h2v2h-2z"/></svg>